<svg xmlns="http://www.w3.org/2000/svg" fill="currentColor" viewBox="0 0 260 400">
  <path fill-rule="evenodd" d="M100,400H25A24.978,24.978,0,0,1,0,375V25A24.98,24.98,0,0,1,25,0h75a29.8,29.8,0,0,0,8.8,21.2A29.8,29.8,0,0,0,130,30,30.035,30.035,0,0,0,160,0h75a24.98,24.98,0,0,1,25,25V375a24.977,24.977,0,0,1-25,25H160a30,30,0,0,0-60,0ZM220,274a8,8,0,1,0,8,8A8.009,8.009,0,0,0,220,274Zm-45,0a8,8,0,1,0,8,8A8.009,8.009,0,0,0,175,274Zm-45,0a8,8,0,1,0,8,8A8.009,8.009,0,0,0,130,274Zm-45,0a8,8,0,1,0,8,8A8.009,8.009,0,0,0,85,274Zm-45,0a8,8,0,1,0,8,8A8.009,8.009,0,0,0,40,274Z" clipRule="evenodd" />
</svg>